<?xml version="1.0" encoding="UTF-8"?>
<svg width="300px" height="300px" viewBox="0 0 300 300" version="1.1" xmlns="http://www.w3.org/2000/svg" xmlns:xlink="http://www.w3.org/1999/xlink">
    <!-- Generator: Sketch 47 (45396) - http://www.bohemiancoding.com/sketch -->
    <title>email</title>
    <desc>Created with Sketch.</desc>
    <defs></defs>
    <g id="Page-1" stroke="none" stroke-width="1" fill="none" fill-rule="evenodd">
        <g id="email" fill-rule="nonzero" fill="#000000">
            <path d="M149.996,0 C67.157,0 0.001,67.158 0.001,149.997 C0.001,232.834 67.157,299.997 149.996,299.997 C232.835,299.997 299.996,232.834 299.996,149.997 C299.996,67.158 232.835,0 149.996,0 Z M149.999,52.686 L238.762,108.036 L61.236,108.036 L149.999,52.686 Z M239.868,196.423 L239.859,196.423 C239.859,205.301 232.664,212.495 223.787,212.495 L76.211,212.495 C67.333,212.495 60.139,205.3 60.139,196.423 L60.139,111.558 C60.139,110.619 60.235,109.706 60.391,108.809 L145.199,161.692 C145.303,161.757 145.414,161.801 145.521,161.861 C145.633,161.923 145.747,161.983 145.861,162.04 C146.46,162.349 147.077,162.598 147.708,162.761 C147.773,162.779 147.838,162.787 147.903,162.802 C148.595,162.965 149.296,163.067 149.996,163.067 L150.001,163.067 C150.006,163.067 150.011,163.067 150.011,163.067 C150.711,163.067 151.412,162.968 152.104,162.802 C152.169,162.786 152.234,162.779 152.299,162.761 C152.929,162.598 153.544,162.349 154.146,162.04 C154.26,161.983 154.374,161.923 154.486,161.861 C154.592,161.801 154.704,161.757 154.808,161.692 L239.616,108.809 C239.772,109.706 239.868,110.617 239.868,111.558 L239.868,196.423 Z" id="Shape"></path>
        </g>
    </g>
</svg>